<svg width="20" height="20" fill="none" xmlns="http://www.w3.org/2000/svg"><path fill-rule="evenodd" clip-rule="evenodd" d="M0 9.558a9.558 9.558 0 1 1 19.115 0A9.558 9.558 0 0 1 0 9.558Zm7.567 0a1.991 1.991 0 1 1 3.982 0 1.991 1.991 0 0 1-3.982 0Zm-1.077 0a3.067 3.067 0 1 0 6.135 0 3.067 3.067 0 0 0-6.135 0Zm5.54-3.19a.717.717 0 1 0 .716-.716.717.717 0 0 0-.717.717ZM7.143 14.42c-.582-.027-.899-.124-1.11-.206a1.857 1.857 0 0 1-.686-.447 1.844 1.844 0 0 1-.447-.686c-.082-.21-.18-.527-.206-1.11-.028-.63-.034-.818-.034-2.413 0-1.596.006-1.784.034-2.414.027-.583.125-.899.206-1.11.109-.279.238-.478.447-.687a1.84 1.84 0 0 1 .687-.447c.21-.082.527-.179 1.11-.205.629-.03.818-.035 2.412-.035 1.595 0 1.784.006 2.414.035.583.026.899.124 1.11.205.279.108.478.238.687.447.209.21.338.408.447.687.082.21.179.527.205 1.11.03.63.035.818.035 2.414 0 1.595-.006 1.783-.035 2.414-.026.582-.124.899-.205 1.109a1.851 1.851 0 0 1-.447.687 1.857 1.857 0 0 1-.687.446c-.21.082-.527.18-1.11.206-.63.029-.818.034-2.414.034-1.595 0-1.783-.005-2.413-.034Zm-.05-10.8c-.635.03-1.07.13-1.45.278a2.93 2.93 0 0 0-1.057.689 2.919 2.919 0 0 0-.69 1.058c-.147.38-.248.814-.277 1.45-.03.637-.036.84-.036 2.463 0 1.622.007 1.825.036 2.462.03.636.13 1.07.278 1.45.152.393.356.726.689 1.058.332.332.665.536 1.058.69.38.147.814.248 1.45.277.637.029.84.036 2.462.036 1.623 0 1.826-.007 2.463-.036.636-.03 1.07-.13 1.45-.278a2.937 2.937 0 0 0 1.058-.689c.333-.332.536-.665.69-1.058.147-.38.248-.814.277-1.45.029-.637.035-.84.035-2.462 0-1.623-.006-1.826-.035-2.463-.03-.636-.13-1.07-.278-1.45a2.939 2.939 0 0 0-.689-1.058 2.923 2.923 0 0 0-1.057-.69c-.38-.147-.815-.248-1.45-.277-.637-.029-.84-.036-2.463-.036-1.622 0-1.826.007-2.463.036Z" fill="#3F3F3F"/></svg>