<svg width="37" height="50" fill="none" xmlns="http://www.w3.org/2000/svg"><path d="m30.533 12.126-5.906 5.906m5.906 1.688-5.906 5.906m5.906 1.688-5.906 5.906M6.906 2 1 7.907m5.906 1.687L1 15.501m5.906 1.687L1 23.095m5.906 2.531L1 31.533" stroke="#858685" stroke-width="1.5"/><path d="M6.064 49.253V25.626m5.907-17.72L6.064 2v7.594m0 0 5.907 5.907M6.064 9.594v7.594m0 0 5.907 5.907m-5.907-5.907v8.438m0 0 5.907 5.907m17.72 17.72V27.314m5.907-9.282-5.907-5.906v7.594m0 0 5.907 5.906m-5.907-5.906v7.594m0 0 5.907 5.906" stroke="#000" stroke-width="1.5"/></svg>