<svg width="65" height="47" fill="none" xmlns="http://www.w3.org/2000/svg"><path fill-rule="evenodd" clip-rule="evenodd" d="M63.463 29.603A9.077 9.077 0 1 1 46 33.077h2A7.077 7.077 0 1 0 55.102 26H0v-2h56v.047a9.077 9.077 0 0 1 7.463 5.556Z" fill="#1D1F1D"/><path fill-rule="evenodd" clip-rule="evenodd" d="M29.462 34H0v-2h30v.02a7.462 7.462 0 1 1-8 7.442h2A5.462 5.462 0 1 0 29.463 34Zm23.891-22.247A8.501 8.501 0 1 0 37 8.5h2a6.5 6.5 0 1 1 6.504 6.5H0v2h46v-.015a8.5 8.5 0 0 0 7.353-5.232Z" fill="#858685"/></svg>