<svg width="17" height="17" fill="none" xmlns="http://www.w3.org/2000/svg"><path d="M13.338 10.212c-.554-.118-.992.14-1.38.364-.398.231-1.155.845-1.587.687-2.219-.913-4.305-2.855-5.208-5.081-.16-.444.451-1.204.68-1.606.224-.389.476-.832.36-1.39C6.1 2.685 4.758.976 4.283.508 3.968.199 3.648.03 3.318.001 2.08-.05.696 1.601.454 1.997c-.609.843-.605 1.964.01 3.325 1.481 3.653 7.083 9.166 10.75 10.703.676.316 1.296.475 1.852.475.544 0 1.028-.152 1.444-.453.314-.18 2.035-1.633 1.99-2.904-.027-.325-.197-.649-.501-.963-.465-.479-2.163-1.862-2.66-1.968Z" fill="#314C51"/></svg>