<svg width="67" height="32" fill="none" xmlns="http://www.w3.org/2000/svg"><path d="m1 30.49 8.384-4.79a5 5 0 0 1 4.962 0l5.903 3.373a5 5 0 0 0 4.962 0l5.903-3.373a5 5 0 0 1 4.961 0l5.904 3.373a5 5 0 0 0 4.961 0l5.904-3.373a5 5 0 0 1 4.961 0l8.384 4.79" stroke="#1D1F1D" stroke-width="2"/><path d="m1 19.625 7.959-5.684a5 5 0 0 1 5.812 0l5.053 3.609a5 5 0 0 0 5.812 0l5.053-3.61a5 5 0 0 1 5.812 0l5.052 3.61a5 5 0 0 0 5.813 0l5.052-3.61a5 5 0 0 1 5.813 0l7.958 5.685" stroke="#858685" stroke-width="2"/><path d="m1 7.209 8.384-4.791a5 5 0 0 1 4.962 0l5.903 3.373a5 5 0 0 0 4.962 0l5.903-3.373a5 5 0 0 1 4.961 0L41.98 5.79a5 5 0 0 0 4.961 0l5.904-3.373a5 5 0 0 1 4.961 0l8.384 4.79" stroke="#1D1F1D" stroke-width="2"/></svg>