<svg width="735" height="848" fill="none" xmlns="http://www.w3.org/2000/svg"><path d="M280.5 30c-.155 0-.158 0 0 0 4.748.009 151.823.285 177 9l22.5 83.5 10 31 13.5 21.5-198 4-25-149Z" fill="#fff" fill-opacity=".2"/><path d="M378.274 110.88c5.803 0 10.24 1.984 13.312 5.952 3.115 3.925 4.672 9.429 4.672 16.512 0 4.949-.832 9.152-2.496 12.608-1.621 3.413-3.925 5.995-6.912 7.744-2.987 1.749-6.485 2.624-10.496 2.624-4.224 0-7.616-.768-10.176-2.304l1.344-2.624c2.133 1.365 5.077 2.048 8.832 2.048 5.163 0 9.216-1.664 12.16-4.992 2.987-3.371 4.48-8.235 4.48-14.592 0-1.963-.128-3.755-.384-5.376-.896 2.901-2.645 5.163-5.248 6.784-2.56 1.621-5.568 2.432-9.024 2.432-2.944 0-5.568-.533-7.872-1.6-2.261-1.109-4.011-2.667-5.248-4.672-1.237-2.048-1.856-4.395-1.856-7.04 0-2.688.64-5.056 1.92-7.104 1.28-2.048 3.051-3.627 5.312-4.736s4.821-1.664 7.68-1.664Zm.512 24c2.389 0 4.523-.469 6.4-1.408 1.92-.939 3.392-2.219 4.416-3.84 1.067-1.621 1.6-3.435 1.6-5.44 0-1.792-.512-3.499-1.536-5.12-.981-1.621-2.432-2.923-4.352-3.904-1.92-.981-4.224-1.472-6.912-1.472-3.499 0-6.336.981-8.512 2.944-2.176 1.92-3.264 4.48-3.264 7.68 0 3.2 1.088 5.76 3.264 7.68 2.176 1.92 5.141 2.88 8.896 2.88Z" fill="#F8F8F8"/><path d="M705.5 107 717 62l-78.5-6h-35l-125-15.5 40 111 120-2.5 67-42Z" fill="#fff" fill-opacity=".2"/><path d="M581.003 85.2V130h-3.264V88.144h-10.944V85.2h14.208Z" fill="#F8F8F8"/><path d="M648.689 329.549 530.5 328.5 549 169h37l61-4.5 54.5-29-52.811 194.049Z" fill="#fff" fill-opacity=".2"/><path d="M603.877 286.056V289h-30.784v-2.304l18.944-18.816c2.475-2.475 4.139-4.587 4.992-6.336.896-1.792 1.344-3.627 1.344-5.504 0-2.859-.981-5.099-2.944-6.72-1.92-1.621-4.715-2.432-8.384-2.432-2.816 0-5.291.427-7.424 1.28-2.091.853-3.904 2.155-5.44 3.904l-2.304-2.048c1.707-1.963 3.861-3.477 6.464-4.544 2.645-1.067 5.632-1.6 8.96-1.6 4.395 0 7.893 1.067 10.496 3.2 2.603 2.133 3.904 5.013 3.904 8.64a14.8 14.8 0 0 1-1.536 6.592c-1.024 2.091-2.944 4.523-5.76 7.296l-16.512 16.448h25.984Z" fill="#F8F8F8"/><path d="M730.5 50.5 523.5 842 3.5 368.5 98 4l632.5 46.5Z" stroke="#fff" stroke-opacity=".6" stroke-width="6"/><path d="m267.5 28 38 212L67 178l44-157 156.5 7Z" fill="#fff" fill-opacity=".2"/><path d="M188.89 111.2V156h-3.264v-41.856h-10.944V111.2h14.208Zm28.935 45.12c-3.414 0-6.464-.917-9.152-2.752-2.646-1.877-4.715-4.523-6.208-7.936-1.451-3.413-2.176-7.424-2.176-12.032s.725-8.619 2.176-12.032c1.493-3.413 3.562-6.037 6.208-7.872 2.688-1.877 5.738-2.816 9.152-2.816 3.413 0 6.442.939 9.088 2.816 2.688 1.835 4.757 4.459 6.208 7.872 1.493 3.413 2.24 7.424 2.24 12.032s-.747 8.619-2.24 12.032c-1.451 3.413-3.52 6.059-6.208 7.936-2.646 1.835-5.675 2.752-9.088 2.752Zm0-3.008c2.816 0 5.29-.768 7.424-2.304 2.176-1.579 3.861-3.84 5.056-6.784 1.194-2.987 1.792-6.528 1.792-10.624 0-4.096-.598-7.616-1.792-10.56-1.195-2.987-2.88-5.248-5.056-6.784-2.134-1.579-4.608-2.368-7.424-2.368-2.816 0-5.312.789-7.488 2.368-2.134 1.536-3.798 3.797-4.992 6.784-1.195 2.944-1.792 6.464-1.792 10.56s.597 7.637 1.792 10.624c1.194 2.944 2.858 5.205 4.992 6.784 2.176 1.536 4.672 2.304 7.488 2.304Z" fill="#F8F8F8"/><path d="M297 250.5C243.533 315.062 136.119 463.773 134.5 465l-111-105L64 199l233 51.5Z" fill="#fff" fill-opacity=".2"/><path d="M134.172 282.2V327h-3.264v-41.856h-10.944V282.2h14.208Zm22.663 0V327h-3.264v-41.856h-10.944V282.2h14.208Z" fill="#F8F8F8"/><path d="M222 521.5c-19.3-19.039-61.063-57.881-64-61.5l117-165.5 95 183.783-88 59.217-60-16Z" fill="#fff" fill-opacity=".2"/><path d="M293.71 417.2v2.304L274.446 462h-3.584l19.072-41.856h-25.152v8.576h-3.2V417.2h32.128Z" fill="#F8F8F8"/><path d="M313.5 245.5 281 292l97.044 181 72.456-44.5 50-106-187-77Z" fill="#fff" fill-opacity=".2"/><path d="M398.801 373.576c3.072.811 5.44 2.176 7.104 4.096 1.707 1.92 2.56 4.267 2.56 7.04 0 3.925-1.514 7.019-4.544 9.28-3.029 2.219-7.189 3.328-12.48 3.328-5.248 0-9.386-1.109-12.416-3.328-2.986-2.261-4.48-5.355-4.48-9.28 0-2.816.811-5.163 2.432-7.04 1.664-1.92 4.032-3.285 7.104-4.096-2.56-.853-4.522-2.133-5.888-3.84-1.365-1.707-2.048-3.797-2.048-6.272 0-3.584 1.387-6.4 4.16-8.448 2.774-2.091 6.486-3.136 11.136-3.136 4.651 0 8.384 1.045 11.2 3.136 2.816 2.091 4.224 4.907 4.224 8.448 0 2.432-.704 4.523-2.112 6.272-1.365 1.707-3.349 2.987-5.952 3.84Zm-19.392-10.048c0 2.688 1.046 4.821 3.136 6.4 2.134 1.579 5.099 2.368 8.896 2.368 3.798 0 6.763-.768 8.896-2.304 2.176-1.579 3.264-3.712 3.264-6.4 0-2.731-1.109-4.885-3.328-6.464-2.176-1.621-5.12-2.432-8.832-2.432-3.712 0-6.656.789-8.832 2.368-2.133 1.579-3.2 3.733-3.2 6.464Zm12.032 30.976c4.31 0 7.68-.875 10.112-2.624 2.432-1.749 3.648-4.139 3.648-7.168 0-2.987-1.216-5.355-3.648-7.104-2.432-1.749-5.802-2.624-10.112-2.624-4.266 0-7.616.875-10.048 2.624-2.389 1.749-3.584 4.117-3.584 7.104 0 3.029 1.195 5.419 3.584 7.168 2.39 1.749 5.739 2.624 10.048 2.624Z" fill="#F8F8F8"/><path d="M469 453.546 594.5 515l53-182-76.5-1h-43l-59 121.546Z" fill="#fff" fill-opacity=".2"/><path d="M546.308 414.72c4.95.128 8.704 1.344 11.264 3.648 2.603 2.261 3.904 5.269 3.904 9.024 0 2.517-.597 4.757-1.792 6.72-1.194 1.92-2.986 3.435-5.376 4.544-2.346 1.109-5.184 1.664-8.512 1.664-3.242 0-6.293-.533-9.152-1.6-2.858-1.109-5.077-2.581-6.656-4.416l1.664-2.496c1.451 1.621 3.414 2.944 5.888 3.968 2.518 1.024 5.27 1.536 8.256 1.536 3.968 0 7.019-.875 9.152-2.624 2.134-1.792 3.2-4.224 3.2-7.296 0-3.115-1.088-5.547-3.264-7.296-2.176-1.749-5.44-2.624-9.792-2.624h-2.816v-2.368l13.248-16.96h-23.872V395.2h28.096v2.304l-13.44 17.216Z" fill="#F8F8F8"/><path d="M434.625 596.218C468.426 605.273 564.344 630.506 567 631l27.5-108-136.939-66L380 503.303l54.625 92.915Z" fill="#fff" fill-opacity=".2"/><path d="M502.959 550.584h-9.408V563h-3.2v-12.416h-25.536v-2.368l24.32-30.016h3.648l-23.872 29.504h21.504V536.76h3.136v10.944h9.408v2.88Z" fill="#F8F8F8"/><path d="M449.5 607c-10.728 30.111-41.357 103.254-45 112.5l114 102L566 637l-116.5-30Z" fill="#fff" fill-opacity=".2"/><path d="M472.62 664.952c6.528 0 11.264 1.152 14.208 3.456 2.944 2.261 4.416 5.483 4.416 9.664 0 2.56-.597 4.843-1.792 6.848-1.152 1.963-2.901 3.52-5.248 4.672-2.346 1.152-5.226 1.728-8.64 1.728-3.242 0-6.293-.555-9.152-1.664-2.816-1.109-5.013-2.56-6.592-4.352l1.664-2.496c1.408 1.621 3.35 2.944 5.824 3.968 2.518 1.024 5.248 1.536 8.192 1.536 4.011 0 7.083-.917 9.216-2.752 2.176-1.835 3.264-4.288 3.264-7.36 0-3.371-1.237-5.931-3.712-7.68-2.432-1.749-6.549-2.624-12.352-2.624h-9.088l2.368-21.696h23.744v2.944h-20.992l-1.728 15.808h6.4Z" fill="#F8F8F8"/><path d="M365.5 519c-30.909 16.072-106.571 57.354-111.5 60.5l137 129 38-79L365.5 519Z" fill="#fff" fill-opacity=".2"/><path d="M353.69 597.504c2.944 0 5.547.555 7.808 1.664 2.304 1.067 4.075 2.624 5.312 4.672 1.237 2.005 1.856 4.331 1.856 6.976 0 2.688-.64 5.056-1.92 7.104-1.28 2.048-3.051 3.627-5.312 4.736s-4.821 1.664-7.68 1.664c-5.803 0-10.261-1.963-13.376-5.888-3.072-3.968-4.608-9.493-4.608-16.576 0-4.949.811-9.131 2.432-12.544 1.664-3.456 3.989-6.059 6.976-7.808 2.987-1.749 6.485-2.624 10.496-2.624 4.224 0 7.616.768 10.176 2.304l-1.344 2.624c-2.133-1.365-5.077-2.048-8.832-2.048-5.163 0-9.237 1.685-12.224 5.056-2.944 3.328-4.416 8.171-4.416 14.528 0 1.963.128 3.755.384 5.376.896-2.901 2.624-5.163 5.184-6.784 2.603-1.621 5.632-2.432 9.088-2.432Zm-.064 24c3.499 0 6.336-.96 8.512-2.88 2.176-1.963 3.264-4.544 3.264-7.744s-1.088-5.76-3.264-7.68c-2.176-1.92-5.141-2.88-8.896-2.88-2.389 0-4.544.469-6.464 1.408-1.877.939-3.349 2.219-4.416 3.84-1.024 1.621-1.536 3.435-1.536 5.44 0 1.792.491 3.499 1.472 5.12 1.024 1.621 2.496 2.923 4.416 3.904 1.92.981 4.224 1.472 6.912 1.472Z" fill="#F8F8F8"/></svg>