<svg width="75" height="66" fill="none" xmlns="http://www.w3.org/2000/svg"><path fill-rule="evenodd" clip-rule="evenodd" d="M.691 28.487 8.118 1.315l48.909 3.604L54.573 13h.214l2.51-8.266L7.966 1.097.46 28.552 39.02 64.91l8.475-27.905h-.214l-8.361 27.53L.69 28.486Z" fill="#F8F8F8"/><path fill-rule="evenodd" clip-rule="evenodd" d="m56.485 5.29-2.466 8.118h1.073l2.747-9.046L7.658.663 0 28.681l39.22 36.982 8.83-29.068h-1.073L38.72 63.78 1.152 28.358l7.273-26.61 48.06 3.543Z" fill="#F8F8F8"/><path d="M14.313 29.502c-1.34 0-2.383-.384-3.132-1.152-.748-.769-1.122-1.887-1.122-3.354v-5.924h1.093v5.88c0 1.201.27 2.097.812 2.688.542.591 1.325.887 2.35.887 1.034 0 1.821-.296 2.363-.887.542-.59.813-1.487.813-2.688v-5.88h1.063v5.924c0 1.467-.374 2.585-1.123 3.354-.738.768-1.777 1.152-3.117 1.152ZM12.998 17.89a.652.652 0 0 1-.457-.177.62.62 0 0 1-.178-.458c0-.178.06-.325.178-.444a.625.625 0 0 1 .9 0 .578.578 0 0 1 .193.444c0 .177-.064.33-.192.458a.601.601 0 0 1-.444.177Zm2.63 0a.652.652 0 0 1-.458-.177.652.652 0 0 1-.177-.458.58.58 0 0 1 .192-.444.609.609 0 0 1 .886 0 .578.578 0 0 1 .192.444c0 .187-.064.34-.192.458a.601.601 0 0 1-.443.177Zm8.893 7.623-1.832 1.684v2.216H21.64V18.451h1.05v7.431l4.638-4.24h1.3l-3.324 3.177 3.635 4.594h-1.286l-3.132-3.9Zm7.859 3.974c-.63 0-1.236-.089-1.817-.266-.572-.187-1.02-.418-1.345-.694l.473-.828c.325.256.734.468 1.226.636a5.01 5.01 0 0 0 1.537.236c.709 0 1.23-.108 1.566-.325.344-.226.517-.542.517-.945 0-.286-.094-.508-.28-.665a1.736 1.736 0 0 0-.71-.37 8.951 8.951 0 0 0-1.137-.25 14.376 14.376 0 0 1-1.522-.355 2.35 2.35 0 0 1-.99-.636c-.266-.295-.399-.704-.399-1.226 0-.65.27-1.182.813-1.595.541-.414 1.295-.62 2.26-.62a5.67 5.67 0 0 1 1.507.206c.502.128.916.3 1.24.517l-.457.842c-.64-.443-1.404-.665-2.29-.665-.67 0-1.177.119-1.522.355-.335.236-.502.547-.502.93 0 .296.094.533.28.71.198.177.439.31.725.399.285.078.68.162 1.181.25.621.12 1.118.237 1.493.355.374.119.694.32.96.606s.399.68.399 1.182c0 .68-.286 1.221-.857 1.625-.562.394-1.344.591-2.35.591Zm9.252-.547a2.063 2.063 0 0 1-.74.414 3.024 3.024 0 0 1-.9.133c-.73 0-1.29-.197-1.684-.59-.394-.395-.591-.951-.591-1.67v-4.698h-1.39v-.887h1.39v-1.699h1.049v1.7h2.363v.886h-2.363v4.639c0 .463.113.817.34 1.063.236.237.57.355 1.004.355.217 0 .423-.035.62-.103a1.55 1.55 0 0 0 .532-.296l.37.753Zm8.416-3.087h-6.5c.058.807.369 1.462.93 1.965.561.492 1.27.738 2.127.738.483 0 .926-.083 1.33-.25a2.985 2.985 0 0 0 1.049-.769l.59.68a3.315 3.315 0 0 1-1.3.945 4.318 4.318 0 0 1-1.698.325c-.798 0-1.507-.167-2.127-.502a3.742 3.742 0 0 1-1.434-1.418c-.344-.601-.517-1.28-.517-2.04 0-.758.163-1.437.488-2.038.335-.6.788-1.069 1.359-1.403a3.835 3.835 0 0 1 1.95-.503c.72 0 1.364.168 1.935.503.572.334 1.02.802 1.345 1.403.325.591.487 1.27.487 2.039l-.014.325Zm-3.753-3.369c-.748 0-1.379.242-1.89.724-.503.473-.789 1.094-.858 1.862h5.51c-.068-.768-.359-1.389-.87-1.862-.503-.482-1.133-.724-1.892-.724Zm5.917-.842h1.049v7.771h-1.05v-7.77Zm.532-1.699a.743.743 0 0 1-.547-.221.725.725 0 0 1-.222-.532c0-.197.074-.37.222-.517a.743.743 0 0 1 .547-.222c.216 0 .398.074.546.222a.662.662 0 0 1 .222.502.743.743 0 0 1-.222.547.743.743 0 0 1-.546.221Zm5.533 9.544c-.63 0-1.236-.089-1.817-.266-.572-.187-1.02-.418-1.345-.694l.473-.828c.325.256.734.468 1.226.636a5.01 5.01 0 0 0 1.537.236c.709 0 1.23-.108 1.566-.325.344-.226.517-.542.517-.945 0-.286-.094-.508-.281-.665a1.736 1.736 0 0 0-.71-.37 8.95 8.95 0 0 0-1.137-.25 14.38 14.38 0 0 1-1.521-.355 2.35 2.35 0 0 1-.99-.636c-.266-.295-.399-.704-.399-1.226 0-.65.27-1.182.813-1.595.541-.414 1.295-.62 2.26-.62a5.67 5.67 0 0 1 1.507.206c.502.128.916.3 1.24.517l-.457.842c-.64-.443-1.404-.665-2.29-.665-.67 0-1.177.119-1.522.355-.335.236-.502.547-.502.93 0 .296.093.533.28.71.197.177.439.31.724.399.286.078.68.162 1.182.25.62.12 1.118.237 1.492.355.375.119.695.32.96.606.267.286.4.68.4 1.182 0 .68-.286 1.221-.857 1.625-.562.394-1.345.591-2.35.591Zm9.251-.547a2.062 2.062 0 0 1-.738.414 3.025 3.025 0 0 1-.901.133c-.73 0-1.29-.197-1.685-.59-.393-.395-.59-.951-.59-1.67v-4.698h-1.39v-.887h1.39v-1.699h1.048v1.7h2.364v.886h-2.364v4.639c0 .463.114.817.34 1.063.237.237.571.355 1.005.355.216 0 .423-.035.62-.103a1.55 1.55 0 0 0 .532-.296l.37.753Zm-14.796 7.416c.685 0 1.185-.357 1.34-1.002H53.7c-.121.432-.46.674-.944.674-.634 0-1.1-.438-1.117-1.192h2.464c.046-.967-.513-1.703-1.382-1.703-.829 0-1.45.615-1.45 1.611 0 .962.558 1.612 1.462 1.612Zm-.018-2.901c.622 0 .996.53.996 1.053h-2.06c.074-.69.489-1.053 1.064-1.053Zm2.373-1.347h-.357v4.173h.357v-4.173Zm2.783 4.173h.356v-3.097h-.357v1.745c0 .656-.414 1.105-.904 1.105-.604 0-.742-.392-.742-.973v-1.877h-.357v1.975c0 .76.3 1.197 1.007 1.197.536 0 .84-.282.996-.575v.5Zm2.586-3.114c-.017-.006-.04-.006-.057-.006h-.047c-.368 0-.777.225-.915.587v-.564h-.34v3.097h.352v-1.623c0-.656.207-1.117.846-1.117h.075c.029 0 .057 0 .086.006v-.38Zm.571 2.337c0-.478.547-.65 1.801-.788v.15c0 .874-.518 1.173-1.093 1.173-.415 0-.708-.207-.708-.535Zm1.807.777h.363c-.018-.34-.035-.639-.035-.99 0-.247.006-.524.006-.955 0-.921-.478-1.22-1.197-1.22-.697 0-1.18.396-1.267 1.012h.374c.03-.408.34-.696.87-.696.443 0 .863.15.863.857v.11c-1.49.155-2.182.403-2.182 1.11 0 .513.444.847 1.025.847.576 0 .961-.219 1.163-.547l.017.472Zm1.092.19c0 .409-.028.49-.414.49h-.069v.328h.19c.553 0 .65-.19.65-.812v-3.293h-.357v3.287Zm0-4.363v.57h.357v-.57h-.357Zm1.367 2.636c0-.892.42-1.283 1.019-1.283.593 0 1.025.391 1.025 1.283 0 .893-.432 1.284-1.025 1.284-.599 0-1.019-.391-1.019-1.284Zm-.38 0c0 1.129.662 1.612 1.399 1.612.743 0 1.404-.483 1.404-1.612 0-1.128-.661-1.611-1.404-1.611-.737 0-1.399.483-1.399 1.611Zm3.615 0c0-.892.42-1.283 1.02-1.283.592 0 1.024.391 1.024 1.283 0 .893-.432 1.284-1.025 1.284-.599 0-1.019-.391-1.019-1.284Zm-.38 0c0 1.129.662 1.612 1.4 1.612.742 0 1.404-.483 1.404-1.612 0-1.128-.662-1.611-1.405-1.611-.737 0-1.399.483-1.399 1.611Zm3.789-1.56h-.357v3.097h.357v-1.72c0-.657.403-1.106.939-1.106.621 0 .777.391.777.973v1.853h.356V34.33c0-.76-.31-1.197-1.041-1.197-.582 0-.875.282-1.03.575v-.524Z" fill="#F8F8F8"/></svg>