<svg width="1920" height="357" fill="none" xmlns="http://www.w3.org/2000/svg"><path d="M752 356.5V287m0 0h103.5M752 287H640m603 0h-145m145 0-11.5-244.5M1243 287l322.5 43M1098 287H968.5m129.5 0V96M855.5 287V60m0 227h113M640 287V60m0 227-131-15.5m0 0v67m0-67-125.5-53.927M-121 147.5l218.5-34.592 25.289-4.004a19.989 19.989 0 0 1 11.023 1.379L242 156.771m141.5 60.802 27.679-158.509a20 20 0 0 1 7.364-12.3L468 8m-84.5 209.573L242 156.771m0 0L259.5 8m709 279v47" stroke="#797886" stroke-width="20"/><path d="M768 288.881h16l-1.916 3.81h-11.306l-2.778-3.81Z" fill="#fff"/><path d="m768 277.685 8-1.375v13.1l-8 1.376v-13.101Z" fill="#B5B5B5"/><path d="m784 277.685-8-1.375v13.1l8 1.376v-13.101Z" fill="#DADADA"/><path d="M534.488 307.233h20.024L552.114 312h-14.149l-3.477-4.767Z" fill="#fff"/><path d="M534.488 293.221 544.5 291.5v16.395l-10.012 1.721v-16.395Z" fill="#B5B5B5"/><path d="M554.512 293.221 544.5 291.5v16.395l10.012 1.721v-16.395Z" fill="#DADADA"/><path d="M595 261.733h20.023l-2.398 4.767h-14.148L595 261.733Z" fill="#fff"/><path d="M595 247.721 605.012 246v16.395L595 264.116v-16.395Z" fill="#B5B5B5"/><path d="M615.023 247.721 605.012 246v16.395l10.011 1.721v-16.395Z" fill="#DADADA"/><path d="M1036.93 257.895h15.14l-1.81 3.605h-10.7l-2.63-3.605Z" fill="#fff"/><path d="m1036.93 247.302 7.57-1.302v12.396l-7.57 1.302v-12.396Z" fill="#B5B5B5"/><path d="M1052.07 247.302 1044.5 246v12.396l7.57 1.302v-12.396Z" fill="#DADADA"/><path d="M149.697 244.047h16.605L164.313 248h-11.732l-2.884-3.953Z" fill="#fff"/><path d="M149.697 232.428 158 231v13.596l-8.303 1.427v-13.595Z" fill="#B5B5B5"/><path d="M166.303 232.428 158 231v13.596l8.303 1.427v-13.595Z" fill="#DADADA"/><path d="M671.5 113.893H693l-2.575 5.119h-15.191l-3.734-5.119Z" fill="#fff"/><path d="M671.5 98.848 682.25 97v17.604l-10.75 1.848V98.848Z" fill="#B5B5B5"/><path d="M693 98.848 682.25 97v17.604l10.75 1.848V98.848Z" fill="#DADADA"/><path d="M594 80.893h21.5l-2.575 5.119h-15.191L594 80.892Z" fill="#fff"/><path d="M594 65.848 604.75 64v17.604L594 83.452V65.848Z" fill="#B5B5B5"/><path d="M615.5 65.848 604.75 64v17.604l10.75 1.848V65.848Z" fill="#DADADA"/><path d="M671.5 157.393H693l-2.575 5.119h-15.191l-3.734-5.119Z" fill="#fff"/><path d="m671.5 142.348 10.75-1.848v17.604l-10.75 1.848v-17.604Z" fill="#B5B5B5"/><path d="m693 142.348-10.75-1.848v17.604l10.75 1.848v-17.604Z" fill="#DADADA"/><path d="M592 155.887h21.5l-2.575 5.119h-15.191L592 155.887Z" fill="#fff"/><path d="m592 140.843 10.75-1.849v17.604L592 158.447v-17.604Z" fill="#B5B5B5"/><path d="m613.5 140.843-10.75-1.849v17.604l10.75 1.849v-17.604Z" fill="#DADADA"/><path d="M878 187.792h17.5l-2.096 4.166h-12.365L878 187.792Z" fill="#fff"/><path d="m878 175.546 8.75-1.504v14.329l-8.75 1.504v-14.329Z" fill="#B5B5B5"/><path d="m895.5 175.546-8.75-1.504v14.329l8.75 1.504v-14.329Z" fill="#DADADA"/><path d="M878 158.75h17.5l-2.096 4.167h-12.365L878 158.75Z" fill="#fff"/><path d="m878 146.505 8.75-1.505v14.329l-8.75 1.504v-14.328Z" fill="#B5B5B5"/><path d="M895.5 146.505 886.75 145v14.329l8.75 1.504v-14.328Z" fill="#DADADA"/><path d="M878 127.75h17.5l-2.096 4.167h-12.365L878 127.75Z" fill="#fff"/><path d="m878 115.505 8.75-1.505v14.329l-8.75 1.504v-14.328Z" fill="#B5B5B5"/><path d="M895.5 115.505 886.75 114v14.329l8.75 1.504v-14.328Z" fill="#DADADA"/><path d="M808 122.792h17.5l-2.096 4.166h-12.365L808 122.792Z" fill="#fff"/><path d="m808 110.546 8.75-1.504v14.329l-8.75 1.504v-14.329Z" fill="#B5B5B5"/><path d="m825.5 110.546-8.75-1.504v14.329l8.75 1.504v-14.329Z" fill="#DADADA"/><path d="M1125.5 225.065h18.5l-2.22 4.405h-13.07l-3.21-4.405Z" fill="#fff"/><path d="m1125.5 212.12 9.25-1.59v15.147l-9.25 1.591V212.12Z" fill="#B5B5B5"/><path d="m1144 212.12-9.25-1.59v15.147l9.25 1.591V212.12Z" fill="#DADADA"/><path d="m442.533 283.266 14.877 7.401-3.544 2.656-10.512-5.23-.821-4.827Z" fill="#fff"/><path d="m447.711 272.856 8.075 2.421-6.06 12.182-8.075-2.422 6.06-12.181Z" fill="#B5B5B5"/><path d="m462.588 280.257-6.802-4.98-6.06 12.182 6.802 4.979 6.06-12.181Z" fill="#DADADA"/><path d="m378.23 259.44 21.578 10.734-5.14 3.852-15.246-7.585-1.192-7.001Z" fill="#fff"/><path d="m385.741 244.342 11.712 3.512-8.79 17.667-11.711-3.512 8.789-17.667Z" fill="#B5B5B5"/><path d="m407.319 255.076-9.865-7.222-8.79 17.667 9.866 7.222 8.789-17.667Z" fill="#DADADA"/><path d="m428.557 61.953 21.577 10.735-5.14 3.852-15.246-7.585-1.191-7.002Z" fill="#fff"/><path d="m436.067 46.855 11.712 3.513-8.79 17.667-11.711-3.513 8.789-17.667Z" fill="#B5B5B5"/><path d="m457.645 57.59-9.865-7.223-8.79 17.668 9.866 7.222 8.789-17.667Z" fill="#DADADA"/><path d="m321.678 231.965 18.829 9.367-4.485 3.362-13.305-6.619-1.039-6.11Z" fill="#fff"/><path d="m328.234 218.789 10.22 3.065-7.67 15.417-10.221-3.065 7.671-15.417Z" fill="#B5B5B5"/><path d="m347.064 228.157-8.61-6.303-7.67 15.417 8.609 6.303 7.671-15.417Z" fill="#DADADA"/><path d="M268.451 101.807v21.032l-5.007-2.519v-14.861l5.007-3.652Z" fill="#fff"/><path d="m283.168 101.807 1.809 10.516h-17.221l-1.808-10.516h17.22Z" fill="#B5B5B5"/><path d="m283.168 122.839 1.809-10.516h-17.221l-1.808 10.516h17.22Z" fill="#DADADA"/><path d="m179.664 104.022 16.084 8.002-3.832 2.871-11.364-5.654-.888-5.219Z" fill="#fff"/><path d="m185.263 92.768 8.73 2.618-6.552 13.169-8.729-2.618 6.551-13.169Z" fill="#B5B5B5"/><path d="m201.347 100.77-7.354-5.384-6.551 13.169 7.354 5.384 6.551-13.169Z" fill="#DADADA"/><path d="M1067.72 116.186v15.628l-3.72-1.872V118.9l3.72-2.714Z" fill="#fff"/><path d="M1078.66 116.186 1080 124h-12.8l-1.34-7.814h12.8Z" fill="#B5B5B5"/><path d="M1078.66 131.814 1080 124h-12.8l-1.34 7.814h12.8Z" fill="#DADADA"/><path d="M1117.72 135v15.628l-3.72-1.872v-11.042l3.72-2.714Z" fill="#fff"/><path d="m1128.66 135 1.34 7.814h-12.8l-1.34-7.814h12.8Z" fill="#B5B5B5"/><path d="m1128.66 150.628 1.34-7.814h-12.8l-1.34 7.814h12.8Z" fill="#DADADA"/><path d="M1255.72 84v15.628l-3.72-1.872V86.714l3.72-2.714Z" fill="#fff"/><path d="m1266.66 84 1.34 7.814h-12.8L1253.86 84h12.8Z" fill="#B5B5B5"/><path d="m1266.66 99.628 1.34-7.814h-12.8l-1.34 7.814h12.8Z" fill="#DADADA"/><path d="M1255.72 112v15.628l-3.72-1.872v-11.042l3.72-2.714Z" fill="#fff"/><path d="m1266.66 112 1.34 7.814h-12.8l-1.34-7.814h12.8Z" fill="#B5B5B5"/><path d="m1266.66 127.628 1.34-7.814h-12.8l-1.34 7.814h12.8Z" fill="#DADADA"/><path d="M1201.85 327.721h24.3l-2.91 6.279h-17.17l-4.22-6.279Z" fill="#fff"/><path d="M1201.85 309.267 1214 307v21.593l-12.15 2.268v-21.594Z" fill="#B5B5B5"/><path d="M1226.15 309.267 1214 307v21.593l12.15 2.268v-21.594Z" fill="#DADADA"/><g filter="url(#a)"><circle cx="757" cy="171" r="107" fill="#000" fill-opacity=".1"/><circle cx="757" cy="171" r="106.5" stroke="#F8F8F8"/></g><path d="M692.211 165c1.467.08 2.58.48 3.34 1.2.774.707 1.16 1.633 1.16 2.78 0 .8-.193 1.513-.58 2.14-.386.613-.96 1.1-1.72 1.46-.76.36-1.686.54-2.78.54a8.592 8.592 0 0 1-2.88-.48c-.893-.333-1.613-.773-2.16-1.32l.7-1.14c.467.48 1.087.873 1.86 1.18.774.293 1.6.44 2.48.44 1.147 0 2.034-.247 2.66-.74.627-.507.94-1.2.94-2.08 0-.867-.313-1.547-.94-2.04-.626-.493-1.573-.74-2.84-.74h-1v-1.06l3.88-4.86h-7.16V159h9v1.02l-3.96 4.98Zm10.509-6v14h-1.44v-12.72h-3.3V159h4.74Zm7.327 0v14h-1.44v-12.72h-3.3V159h4.74Zm21.521 3.48V173h-1.3v-8.32l-4.26 7.04h-.64l-4.26-7.06V173h-1.3v-10.52h1.44l4.46 7.58 4.54-7.58h1.32Zm65.659-3.48v14h-1.42v-11.2l-5.5 9.42h-.7l-5.5-9.36V173h-1.42v-14h1.22l6.08 10.38 6.02-10.38h1.22Zm8.817 14.1c-1.013 0-1.926-.227-2.74-.68a5.114 5.114 0 0 1-1.92-1.92c-.466-.813-.7-1.733-.7-2.76 0-1.027.234-1.947.7-2.76a4.965 4.965 0 0 1 1.92-1.9c.814-.453 1.727-.68 2.74-.68 1.014 0 1.927.227 2.74.68a4.816 4.816 0 0 1 1.9 1.9c.467.813.7 1.733.7 2.76 0 1.027-.233 1.947-.7 2.76a4.958 4.958 0 0 1-1.9 1.92c-.813.453-1.726.68-2.74.68Zm0-1.26c.747 0 1.414-.167 2-.5a3.601 3.601 0 0 0 1.4-1.46c.334-.627.5-1.34.5-2.14s-.166-1.513-.5-2.14a3.466 3.466 0 0 0-1.4-1.44c-.586-.347-1.253-.52-2-.52-.746 0-1.42.173-2.02.52a3.643 3.643 0 0 0-1.4 1.44c-.333.627-.5 1.34-.5 2.14s.167 1.513.5 2.14a3.791 3.791 0 0 0 1.4 1.46c.6.333 1.274.5 2.02.5Zm13.895-9.44c.987 0 1.88.227 2.68.68.8.44 1.427 1.067 1.88 1.88.454.813.68 1.74.68 2.78 0 1.053-.226 1.987-.68 2.8a4.858 4.858 0 0 1-1.88 1.9c-.786.44-1.68.66-2.68.66-.853 0-1.626-.173-2.32-.52-.68-.36-1.24-.88-1.68-1.56v5.86h-1.42v-14.4h1.36v2.08a4.399 4.399 0 0 1 1.68-1.6c.707-.373 1.5-.56 2.38-.56Zm-.1 9.44c.734 0 1.4-.167 2-.5a3.601 3.601 0 0 0 1.4-1.46c.347-.627.52-1.34.52-2.14s-.173-1.507-.52-2.12a3.601 3.601 0 0 0-1.4-1.46 3.92 3.92 0 0 0-2-.52c-.746 0-1.42.173-2.02.52a3.791 3.791 0 0 0-1.4 1.46c-.333.613-.5 1.32-.5 2.12s.167 1.513.5 2.14a3.791 3.791 0 0 0 1.4 1.46c.6.333 1.274.5 2.02.5Zm17.691-3.66h-8.8c.08 1.093.5 1.98 1.26 2.66.76.667 1.72 1 2.88 1a4.65 4.65 0 0 0 1.8-.34 4.04 4.04 0 0 0 1.42-1.04l.8.92a4.487 4.487 0 0 1-1.76 1.28c-.693.293-1.46.44-2.3.44-1.08 0-2.04-.227-2.88-.68a5.069 5.069 0 0 1-1.94-1.92c-.467-.813-.7-1.733-.7-2.76 0-1.027.22-1.947.66-2.76a4.944 4.944 0 0 1 1.84-1.9c.787-.453 1.667-.68 2.64-.68.973 0 1.847.227 2.62.68a4.805 4.805 0 0 1 1.82 1.9c.44.8.66 1.72.66 2.76l-.02.44Zm-5.08-4.56c-1.013 0-1.867.327-2.56.98-.68.64-1.067 1.48-1.16 2.52h7.46c-.093-1.04-.487-1.88-1.18-2.52-.68-.653-1.533-.98-2.56-.98Z" fill="#F8F8F8"/><path d="M755.5 98v141.5m0-141.5 17.5 17.5M755.5 98 738 115.5m17.5 124L773 222m-17.5 17.5L738 222" stroke="#F8F8F8"/><defs><filter id="a" x="642" y="56" width="230" height="230" filterUnits="userSpaceOnUse" color-interpolation-filters="sRGB"><feFlood flood-opacity="0" result="BackgroundImageFix"/><feGaussianBlur in="BackgroundImage" stdDeviation="4"/><feComposite in2="SourceAlpha" operator="in" result="effect1_backgroundBlur_1439_770"/><feBlend in="SourceGraphic" in2="effect1_backgroundBlur_1439_770" result="shape"/></filter></defs></svg>