<svg width="735" height="848" viewBox="0 0 735 848" fill="none" xmlns="http://www.w3.org/2000/svg">
<path d="M280.5 30.0003C280.345 30 280.342 30 280.5 30L280.5 30.0003C285.248 30.009 432.323 30.2849 457.5 39L480 122.5L490 153.5L503.5 175L305.5 179L280.5 30.0003Z" fill="white" fill-opacity="0.2"/>
<path d="M378.274 110.88C384.077 110.88 388.514 112.864 391.586 116.832C394.701 120.757 396.258 126.261 396.258 133.344C396.258 138.293 395.426 142.496 393.762 145.952C392.141 149.365 389.837 151.947 386.85 153.696C383.863 155.445 380.365 156.32 376.354 156.32C372.13 156.32 368.738 155.552 366.178 154.016L367.522 151.392C369.655 152.757 372.599 153.44 376.354 153.44C381.517 153.44 385.57 151.776 388.514 148.448C391.501 145.077 392.994 140.213 392.994 133.856C392.994 131.893 392.866 130.101 392.61 128.48C391.714 131.381 389.965 133.643 387.362 135.264C384.802 136.885 381.794 137.696 378.338 137.696C375.394 137.696 372.77 137.163 370.466 136.096C368.205 134.987 366.455 133.429 365.218 131.424C363.981 129.376 363.362 127.029 363.362 124.384C363.362 121.696 364.002 119.328 365.282 117.28C366.562 115.232 368.333 113.653 370.594 112.544C372.855 111.435 375.415 110.88 378.274 110.88ZM378.786 134.88C381.175 134.88 383.309 134.411 385.186 133.472C387.106 132.533 388.578 131.253 389.602 129.632C390.669 128.011 391.202 126.197 391.202 124.192C391.202 122.4 390.69 120.693 389.666 119.072C388.685 117.451 387.234 116.149 385.314 115.168C383.394 114.187 381.09 113.696 378.402 113.696C374.903 113.696 372.066 114.677 369.89 116.64C367.714 118.56 366.626 121.12 366.626 124.32C366.626 127.52 367.714 130.08 369.89 132C372.066 133.92 375.031 134.88 378.786 134.88Z" fill="#F8F8F8"/>
<path d="M705.5 107L717 62L638.5 56H603.5L478.5 40.5L518.5 151.5L638.5 149L705.5 107Z" fill="white" fill-opacity="0.2"/>
<path d="M581.003 85.2V130H577.739V88.144H566.795V85.2H581.003Z" fill="#F8F8F8"/>
<path d="M648.689 329.549L530.5 328.5L549 169L586 169L647 164.5L701.5 135.5L648.689 329.549Z" fill="white" fill-opacity="0.2"/>
<path d="M603.877 286.056V289H573.093V286.696L592.037 267.88C594.512 265.405 596.176 263.293 597.029 261.544C597.925 259.752 598.373 257.917 598.373 256.04C598.373 253.181 597.392 250.941 595.429 249.32C593.509 247.699 590.714 246.888 587.045 246.888C584.229 246.888 581.754 247.315 579.621 248.168C577.53 249.021 575.717 250.323 574.181 252.072L571.877 250.024C573.584 248.061 575.738 246.547 578.341 245.48C580.986 244.413 583.973 243.88 587.301 243.88C591.696 243.88 595.194 244.947 597.797 247.08C600.4 249.213 601.701 252.093 601.701 255.72C601.701 258.024 601.189 260.221 600.165 262.312C599.141 264.403 597.221 266.835 594.405 269.608L577.893 286.056H603.877Z" fill="#F8F8F8"/>
<path d="M730.5 50.5L523.5 842L3.5 368.5L98 4L730.5 50.5Z" stroke="white" stroke-opacity="0.6" stroke-width="6"/>
<path d="M267.5 28L305.5 240L67 178L111 21L267.5 28Z" fill="white" fill-opacity="0.2"/>
<path d="M188.89 111.2V156H185.626V114.144H174.682V111.2H188.89ZM217.825 156.32C214.411 156.32 211.361 155.403 208.673 153.568C206.027 151.691 203.958 149.045 202.465 145.632C201.014 142.219 200.289 138.208 200.289 133.6C200.289 128.992 201.014 124.981 202.465 121.568C203.958 118.155 206.027 115.531 208.673 113.696C211.361 111.819 214.411 110.88 217.825 110.88C221.238 110.88 224.267 111.819 226.913 113.696C229.601 115.531 231.67 118.155 233.121 121.568C234.614 124.981 235.361 128.992 235.361 133.6C235.361 138.208 234.614 142.219 233.121 145.632C231.67 149.045 229.601 151.691 226.913 153.568C224.267 155.403 221.238 156.32 217.825 156.32ZM217.825 153.312C220.641 153.312 223.115 152.544 225.249 151.008C227.425 149.429 229.11 147.168 230.305 144.224C231.499 141.237 232.097 137.696 232.097 133.6C232.097 129.504 231.499 125.984 230.305 123.04C229.11 120.053 227.425 117.792 225.249 116.256C223.115 114.677 220.641 113.888 217.825 113.888C215.009 113.888 212.513 114.677 210.337 116.256C208.203 117.792 206.539 120.053 205.345 123.04C204.15 125.984 203.553 129.504 203.553 133.6C203.553 137.696 204.15 141.237 205.345 144.224C206.539 147.168 208.203 149.429 210.337 151.008C212.513 152.544 215.009 153.312 217.825 153.312Z" fill="#F8F8F8"/>
<path d="M297 250.5C243.533 315.062 136.119 463.773 134.5 465L23.5 360L64 199L297 250.5Z" fill="white" fill-opacity="0.2"/>
<path d="M134.172 282.2V327H130.908V285.144H119.964V282.2H134.172ZM156.835 282.2V327H153.571V285.144H142.627V282.2H156.835Z" fill="#F8F8F8"/>
<path d="M222 521.5C202.7 502.461 160.937 463.619 158 460L275 294.5L370 478.283L282 537.5L222 521.5Z" fill="white" fill-opacity="0.2"/>
<path d="M293.71 417.2V419.504L274.446 462H270.862L289.934 420.144H264.782V428.72H261.582V417.2H293.71Z" fill="#F8F8F8"/>
<path d="M313.5 245.5L281 292L378.044 473L450.5 428.5L500.5 322.5L313.5 245.5Z" fill="white" fill-opacity="0.2"/>
<path d="M398.801 373.576C401.873 374.387 404.241 375.752 405.905 377.672C407.612 379.592 408.465 381.939 408.465 384.712C408.465 388.637 406.951 391.731 403.921 393.992C400.892 396.211 396.732 397.32 391.441 397.32C386.193 397.32 382.055 396.211 379.025 393.992C376.039 391.731 374.545 388.637 374.545 384.712C374.545 381.896 375.356 379.549 376.977 377.672C378.641 375.752 381.009 374.387 384.081 373.576C381.521 372.723 379.559 371.443 378.193 369.736C376.828 368.029 376.145 365.939 376.145 363.464C376.145 359.88 377.532 357.064 380.305 355.016C383.079 352.925 386.791 351.88 391.441 351.88C396.092 351.88 399.825 352.925 402.641 355.016C405.457 357.107 406.865 359.923 406.865 363.464C406.865 365.896 406.161 367.987 404.753 369.736C403.388 371.443 401.404 372.723 398.801 373.576ZM379.409 363.528C379.409 366.216 380.455 368.349 382.545 369.928C384.679 371.507 387.644 372.296 391.441 372.296C395.239 372.296 398.204 371.528 400.337 369.992C402.513 368.413 403.601 366.28 403.601 363.592C403.601 360.861 402.492 358.707 400.273 357.128C398.097 355.507 395.153 354.696 391.441 354.696C387.729 354.696 384.785 355.485 382.609 357.064C380.476 358.643 379.409 360.797 379.409 363.528ZM391.441 394.504C395.751 394.504 399.121 393.629 401.553 391.88C403.985 390.131 405.201 387.741 405.201 384.712C405.201 381.725 403.985 379.357 401.553 377.608C399.121 375.859 395.751 374.984 391.441 374.984C387.175 374.984 383.825 375.859 381.393 377.608C379.004 379.357 377.809 381.725 377.809 384.712C377.809 387.741 379.004 390.131 381.393 391.88C383.783 393.629 387.132 394.504 391.441 394.504Z" fill="#F8F8F8"/>
<path d="M469 453.546L594.5 515L647.5 333L571 332H528L469 453.546Z" fill="white" fill-opacity="0.2"/>
<path d="M546.308 414.72C551.258 414.848 555.012 416.064 557.572 418.368C560.175 420.629 561.476 423.637 561.476 427.392C561.476 429.909 560.879 432.149 559.684 434.112C558.49 436.032 556.698 437.547 554.308 438.656C551.962 439.765 549.124 440.32 545.796 440.32C542.554 440.32 539.503 439.787 536.644 438.72C533.786 437.611 531.567 436.139 529.988 434.304L531.652 431.808C533.103 433.429 535.066 434.752 537.54 435.776C540.058 436.8 542.81 437.312 545.796 437.312C549.764 437.312 552.815 436.437 554.948 434.688C557.082 432.896 558.148 430.464 558.148 427.392C558.148 424.277 557.06 421.845 554.884 420.096C552.708 418.347 549.444 417.472 545.092 417.472H542.276V415.104L555.524 398.144H531.652V395.2H559.748V397.504L546.308 414.72Z" fill="#F8F8F8"/>
<path d="M434.625 596.218C468.426 605.273 564.344 630.506 567 631L594.5 523L457.561 457L380 503.303L434.625 596.218Z" fill="white" fill-opacity="0.2"/>
<path d="M502.959 550.584H493.551V563H490.351V550.584H464.815V548.216L489.135 518.2H492.783L468.911 547.704H490.415V536.76H493.551V547.704H502.959V550.584Z" fill="#F8F8F8"/>
<path d="M449.5 607C438.772 637.111 408.143 710.254 404.5 719.5L518.5 821.5L566 637L449.5 607Z" fill="white" fill-opacity="0.2"/>
<path d="M472.62 664.952C479.148 664.952 483.884 666.104 486.828 668.408C489.772 670.669 491.244 673.891 491.244 678.072C491.244 680.632 490.647 682.915 489.452 684.92C488.3 686.883 486.551 688.44 484.204 689.592C481.858 690.744 478.978 691.32 475.564 691.32C472.322 691.32 469.271 690.765 466.412 689.656C463.596 688.547 461.399 687.096 459.82 685.304L461.484 682.808C462.892 684.429 464.834 685.752 467.308 686.776C469.826 687.8 472.556 688.312 475.5 688.312C479.511 688.312 482.583 687.395 484.716 685.56C486.892 683.725 487.98 681.272 487.98 678.2C487.98 674.829 486.743 672.269 484.268 670.52C481.836 668.771 477.719 667.896 471.916 667.896H462.828L465.196 646.2H488.94V649.144H467.948L466.22 664.952H472.62Z" fill="#F8F8F8"/>
<path d="M365.5 519C334.591 535.072 258.929 576.354 254 579.5L391 708.5L429 629.5L365.5 519Z" fill="white" fill-opacity="0.2"/>
<path d="M353.69 597.504C356.634 597.504 359.237 598.059 361.498 599.168C363.802 600.235 365.573 601.792 366.81 603.84C368.047 605.845 368.666 608.171 368.666 610.816C368.666 613.504 368.026 615.872 366.746 617.92C365.466 619.968 363.695 621.547 361.434 622.656C359.173 623.765 356.613 624.32 353.754 624.32C347.951 624.32 343.493 622.357 340.378 618.432C337.306 614.464 335.77 608.939 335.77 601.856C335.77 596.907 336.581 592.725 338.202 589.312C339.866 585.856 342.191 583.253 345.178 581.504C348.165 579.755 351.663 578.88 355.674 578.88C359.898 578.88 363.29 579.648 365.85 581.184L364.506 583.808C362.373 582.443 359.429 581.76 355.674 581.76C350.511 581.76 346.437 583.445 343.45 586.816C340.506 590.144 339.034 594.987 339.034 601.344C339.034 603.307 339.162 605.099 339.418 606.72C340.314 603.819 342.042 601.557 344.602 599.936C347.205 598.315 350.234 597.504 353.69 597.504ZM353.626 621.504C357.125 621.504 359.962 620.544 362.138 618.624C364.314 616.661 365.402 614.08 365.402 610.88C365.402 607.68 364.314 605.12 362.138 603.2C359.962 601.28 356.997 600.32 353.242 600.32C350.853 600.32 348.698 600.789 346.778 601.728C344.901 602.667 343.429 603.947 342.362 605.568C341.338 607.189 340.826 609.003 340.826 611.008C340.826 612.8 341.317 614.507 342.298 616.128C343.322 617.749 344.794 619.051 346.714 620.032C348.634 621.013 350.938 621.504 353.626 621.504Z" fill="#F8F8F8"/>
</svg>
