<svg width="1920" height="357" viewBox="0 0 1920 357" fill="none" xmlns="http://www.w3.org/2000/svg">
<path d="M752 356.5V287M752 287H855.5M752 287H640M1243 287H1134.5H1098M1243 287L1231.5 42.5M1243 287L1565.5 330M1098 287H996.5H968.5M1098 287V96M855.5 287V60M855.5 287H968.5M640 287V60M640 287L509 271.5M509 271.5V338.5M509 271.5L383.5 217.573M-121 147.5L97.5 112.908L122.789 108.904C126.52 108.313 130.342 108.791 133.812 110.283L242 156.771M383.5 217.573L411.179 59.064C412.029 54.1946 414.653 49.8126 418.543 46.7633L468 8M383.5 217.573L242 156.771M242 156.771L259.5 8M968.5 287V334" stroke="#797886" stroke-width="20"/>
<path d="M768 288.881H784L782.084 292.691H770.778L768 288.881Z" fill="white"/>
<path d="M768 277.685L776 276.31V289.41L768 290.786V277.685Z" fill="#B5B5B5"/>
<path d="M784 277.685L776 276.31V289.41L784 290.786V277.685Z" fill="#DADADA"/>
<path d="M534.488 307.233H554.512L552.114 312H537.965L534.488 307.233Z" fill="white"/>
<path d="M534.488 293.221L544.5 291.5V307.895L534.488 309.616V293.221Z" fill="#B5B5B5"/>
<path d="M554.512 293.221L544.5 291.5V307.895L554.512 309.616V293.221Z" fill="#DADADA"/>
<path d="M595 261.733H615.023L612.625 266.5H598.477L595 261.733Z" fill="white"/>
<path d="M595 247.721L605.012 246V262.395L595 264.116V247.721Z" fill="#B5B5B5"/>
<path d="M615.023 247.721L605.012 246V262.395L615.023 264.116V247.721Z" fill="#DADADA"/>
<path d="M1036.93 257.895H1052.07L1050.26 261.5H1039.56L1036.93 257.895Z" fill="white"/>
<path d="M1036.93 247.302L1044.5 246V258.396L1036.93 259.698V247.302Z" fill="#B5B5B5"/>
<path d="M1052.07 247.302L1044.5 246V258.396L1052.07 259.698V247.302Z" fill="#DADADA"/>
<path d="M149.697 244.047H166.302L164.313 248H152.581L149.697 244.047Z" fill="white"/>
<path d="M149.697 232.428L158 231V244.596L149.697 246.023V232.428Z" fill="#B5B5B5"/>
<path d="M166.303 232.428L158 231V244.596L166.303 246.023V232.428Z" fill="#DADADA"/>
<path d="M671.5 113.893H693L690.425 119.012H675.234L671.5 113.893Z" fill="white"/>
<path d="M671.5 98.8484L682.25 97V114.604L671.5 116.452V98.8484Z" fill="#B5B5B5"/>
<path d="M693 98.8484L682.25 97V114.604L693 116.452V98.8484Z" fill="#DADADA"/>
<path d="M594 80.8928H615.5L612.925 86.0119H597.734L594 80.8928Z" fill="white"/>
<path d="M594 65.8484L604.75 64V81.604L594 83.4524V65.8484Z" fill="#B5B5B5"/>
<path d="M615.5 65.8484L604.75 64V81.604L615.5 83.4524V65.8484Z" fill="#DADADA"/>
<path d="M671.5 157.393H693L690.425 162.512H675.234L671.5 157.393Z" fill="white"/>
<path d="M671.5 142.348L682.25 140.5V158.104L671.5 159.952V142.348Z" fill="#B5B5B5"/>
<path d="M693 142.348L682.25 140.5V158.104L693 159.952V142.348Z" fill="#DADADA"/>
<path d="M592 155.887H613.5L610.925 161.006H595.734L592 155.887Z" fill="white"/>
<path d="M592 140.843L602.75 138.994V156.598L592 158.447V140.843Z" fill="#B5B5B5"/>
<path d="M613.5 140.843L602.75 138.994V156.598L613.5 158.447V140.843Z" fill="#DADADA"/>
<path d="M878 187.792H895.5L893.404 191.958H881.039L878 187.792Z" fill="white"/>
<path d="M878 175.546L886.75 174.042V188.371L878 189.875V175.546Z" fill="#B5B5B5"/>
<path d="M895.5 175.546L886.75 174.042V188.371L895.5 189.875V175.546Z" fill="#DADADA"/>
<path d="M878 158.75H895.5L893.404 162.917H881.039L878 158.75Z" fill="white"/>
<path d="M878 146.505L886.75 145V159.329L878 160.833V146.505Z" fill="#B5B5B5"/>
<path d="M895.5 146.505L886.75 145V159.329L895.5 160.833V146.505Z" fill="#DADADA"/>
<path d="M878 127.75H895.5L893.404 131.917H881.039L878 127.75Z" fill="white"/>
<path d="M878 115.505L886.75 114V128.329L878 129.833V115.505Z" fill="#B5B5B5"/>
<path d="M895.5 115.505L886.75 114V128.329L895.5 129.833V115.505Z" fill="#DADADA"/>
<path d="M808 122.792H825.5L823.404 126.958H811.039L808 122.792Z" fill="white"/>
<path d="M808 110.546L816.75 109.042V123.371L808 124.875V110.546Z" fill="#B5B5B5"/>
<path d="M825.5 110.546L816.75 109.042V123.371L825.5 124.875V110.546Z" fill="#DADADA"/>
<path d="M1125.5 225.065H1144L1141.78 229.47H1128.71L1125.5 225.065Z" fill="white"/>
<path d="M1125.5 212.12L1134.75 210.53V225.677L1125.5 227.268V212.12Z" fill="#B5B5B5"/>
<path d="M1144 212.12L1134.75 210.53V225.677L1144 227.268V212.12Z" fill="#DADADA"/>
<path d="M442.533 283.266L457.41 290.667L453.866 293.323L443.354 288.093L442.533 283.266Z" fill="white"/>
<path d="M447.711 272.856L455.786 275.277L449.726 287.459L441.651 285.037L447.711 272.856Z" fill="#B5B5B5"/>
<path d="M462.588 280.257L455.786 275.277L449.726 287.459L456.528 292.438L462.588 280.257Z" fill="#DADADA"/>
<path d="M378.23 259.44L399.808 270.174L394.668 274.026L379.422 266.441L378.23 259.44Z" fill="white"/>
<path d="M385.741 244.342L397.453 247.854L388.663 265.521L376.952 262.009L385.741 244.342Z" fill="#B5B5B5"/>
<path d="M407.319 255.076L397.454 247.854L388.664 265.521L398.53 272.743L407.319 255.076Z" fill="#DADADA"/>
<path d="M428.557 61.9534L450.134 72.6881L444.994 76.5399L429.748 68.9549L428.557 61.9534Z" fill="white"/>
<path d="M436.067 46.8553L447.779 50.3676L438.989 68.0346L427.278 64.5223L436.067 46.8553Z" fill="#B5B5B5"/>
<path d="M457.645 57.5899L447.78 50.3675L438.99 68.0346L448.856 75.257L457.645 57.5899Z" fill="#DADADA"/>
<path d="M321.678 231.965L340.507 241.332L336.022 244.694L322.717 238.075L321.678 231.965Z" fill="white"/>
<path d="M328.234 218.789L338.454 221.854L330.784 237.271L320.563 234.206L328.234 218.789Z" fill="#B5B5B5"/>
<path d="M347.064 228.157L338.454 221.854L330.784 237.271L339.393 243.574L347.064 228.157Z" fill="#DADADA"/>
<path d="M268.451 101.807L268.451 122.839L263.444 120.32L263.444 105.459L268.451 101.807Z" fill="white"/>
<path d="M283.168 101.807L284.977 112.323L267.756 112.323L265.948 101.807L283.168 101.807Z" fill="#B5B5B5"/>
<path d="M283.168 122.839L284.977 112.323L267.756 112.323L265.948 122.839L283.168 122.839Z" fill="#DADADA"/>
<path d="M179.664 104.022L195.748 112.024L191.916 114.895L180.552 109.241L179.664 104.022Z" fill="white"/>
<path d="M185.263 92.768L193.993 95.3861L187.441 108.555L178.712 105.937L185.263 92.768Z" fill="#B5B5B5"/>
<path d="M201.347 100.77L193.993 95.3861L187.442 108.555L194.796 113.939L201.347 100.77Z" fill="#DADADA"/>
<path d="M1067.72 116.186L1067.72 131.814L1064 129.942L1064 118.9L1067.72 116.186Z" fill="white"/>
<path d="M1078.66 116.186L1080 124L1067.2 124L1065.86 116.186L1078.66 116.186Z" fill="#B5B5B5"/>
<path d="M1078.66 131.814L1080 124L1067.2 124L1065.86 131.814L1078.66 131.814Z" fill="#DADADA"/>
<path d="M1117.72 135L1117.72 150.628L1114 148.756L1114 137.714L1117.72 135Z" fill="white"/>
<path d="M1128.66 135L1130 142.814L1117.2 142.814L1115.86 135L1128.66 135Z" fill="#B5B5B5"/>
<path d="M1128.66 150.628L1130 142.814L1117.2 142.814L1115.86 150.628L1128.66 150.628Z" fill="#DADADA"/>
<path d="M1255.72 84L1255.72 99.6279L1252 97.7563L1252 86.7138L1255.72 84Z" fill="white"/>
<path d="M1266.66 84L1268 91.8139L1255.2 91.8139L1253.86 84L1266.66 84Z" fill="#B5B5B5"/>
<path d="M1266.66 99.6279L1268 91.814L1255.2 91.814L1253.86 99.6279L1266.66 99.6279Z" fill="#DADADA"/>
<path d="M1255.72 112L1255.72 127.628L1252 125.756L1252 114.714L1255.72 112Z" fill="white"/>
<path d="M1266.66 112L1268 119.814L1255.2 119.814L1253.86 112L1266.66 112Z" fill="#B5B5B5"/>
<path d="M1266.66 127.628L1268 119.814L1255.2 119.814L1253.86 127.628L1266.66 127.628Z" fill="#DADADA"/>
<path d="M1201.85 327.721H1226.15L1223.24 334H1206.07L1201.85 327.721Z" fill="white"/>
<path d="M1201.85 309.267L1214 307V328.593L1201.85 330.861V309.267Z" fill="#B5B5B5"/>
<path d="M1226.15 309.267L1214 307V328.593L1226.15 330.861V309.267Z" fill="#DADADA"/>
<g filter="url(#filter0_b_1439_770)">
<circle cx="757" cy="171" r="107" fill="black" fill-opacity="0.1"/>
<circle cx="757" cy="171" r="106.5" stroke="#F8F8F8"/>
</g>
<path d="M692.211 165C693.678 165.08 694.791 165.48 695.551 166.2C696.325 166.907 696.711 167.833 696.711 168.98C696.711 169.78 696.518 170.493 696.131 171.12C695.745 171.733 695.171 172.22 694.411 172.58C693.651 172.94 692.725 173.12 691.631 173.12C690.618 173.12 689.658 172.96 688.751 172.64C687.858 172.307 687.138 171.867 686.591 171.32L687.291 170.18C687.758 170.66 688.378 171.053 689.151 171.36C689.925 171.653 690.751 171.8 691.631 171.8C692.778 171.8 693.665 171.553 694.291 171.06C694.918 170.553 695.231 169.86 695.231 168.98C695.231 168.113 694.918 167.433 694.291 166.94C693.665 166.447 692.718 166.2 691.451 166.2H690.451V165.14L694.331 160.28H687.171V159H696.171V160.02L692.211 165ZM702.72 159V173H701.28V160.28H697.98V159H702.72ZM710.047 159V173H708.607V160.28H705.307V159H710.047ZM731.568 162.48V173H730.268V164.68L726.008 171.72H725.368L721.108 164.66V173H719.808V162.48H721.248L725.708 170.06L730.248 162.48H731.568Z" fill="#F8F8F8"/>
<path d="M797.227 159V173H795.807V161.8L790.307 171.22H789.607L784.107 161.86V173H782.687V159H783.907L789.987 169.38L796.007 159H797.227ZM806.044 173.1C805.031 173.1 804.118 172.873 803.304 172.42C802.491 171.953 801.851 171.313 801.384 170.5C800.918 169.687 800.684 168.767 800.684 167.74C800.684 166.713 800.918 165.793 801.384 164.98C801.851 164.167 802.491 163.533 803.304 163.08C804.118 162.627 805.031 162.4 806.044 162.4C807.058 162.4 807.971 162.627 808.784 163.08C809.598 163.533 810.231 164.167 810.684 164.98C811.151 165.793 811.384 166.713 811.384 167.74C811.384 168.767 811.151 169.687 810.684 170.5C810.231 171.313 809.598 171.953 808.784 172.42C807.971 172.873 807.058 173.1 806.044 173.1ZM806.044 171.84C806.791 171.84 807.458 171.673 808.044 171.34C808.644 170.993 809.111 170.507 809.444 169.88C809.778 169.253 809.944 168.54 809.944 167.74C809.944 166.94 809.778 166.227 809.444 165.6C809.111 164.973 808.644 164.493 808.044 164.16C807.458 163.813 806.791 163.64 806.044 163.64C805.298 163.64 804.624 163.813 804.024 164.16C803.438 164.493 802.971 164.973 802.624 165.6C802.291 166.227 802.124 166.94 802.124 167.74C802.124 168.54 802.291 169.253 802.624 169.88C802.971 170.507 803.438 170.993 804.024 171.34C804.624 171.673 805.298 171.84 806.044 171.84ZM819.939 162.4C820.926 162.4 821.819 162.627 822.619 163.08C823.419 163.52 824.046 164.147 824.499 164.96C824.953 165.773 825.179 166.7 825.179 167.74C825.179 168.793 824.953 169.727 824.499 170.54C824.046 171.353 823.419 171.987 822.619 172.44C821.833 172.88 820.939 173.1 819.939 173.1C819.086 173.1 818.313 172.927 817.619 172.58C816.939 172.22 816.379 171.7 815.939 171.02V176.88H814.519V162.48H815.879V164.56C816.306 163.867 816.866 163.333 817.559 162.96C818.266 162.587 819.059 162.4 819.939 162.4ZM819.839 171.84C820.573 171.84 821.239 171.673 821.839 171.34C822.439 170.993 822.906 170.507 823.239 169.88C823.586 169.253 823.759 168.54 823.759 167.74C823.759 166.94 823.586 166.233 823.239 165.62C822.906 164.993 822.439 164.507 821.839 164.16C821.239 163.813 820.573 163.64 819.839 163.64C819.093 163.64 818.419 163.813 817.819 164.16C817.233 164.507 816.766 164.993 816.419 165.62C816.086 166.233 815.919 166.94 815.919 167.74C815.919 168.54 816.086 169.253 816.419 169.88C816.766 170.507 817.233 170.993 817.819 171.34C818.419 171.673 819.093 171.84 819.839 171.84ZM837.53 168.18H828.73C828.81 169.273 829.23 170.16 829.99 170.84C830.75 171.507 831.71 171.84 832.87 171.84C833.523 171.84 834.123 171.727 834.67 171.5C835.217 171.26 835.69 170.913 836.09 170.46L836.89 171.38C836.423 171.94 835.837 172.367 835.13 172.66C834.437 172.953 833.67 173.1 832.83 173.1C831.75 173.1 830.79 172.873 829.95 172.42C829.123 171.953 828.477 171.313 828.01 170.5C827.543 169.687 827.31 168.767 827.31 167.74C827.31 166.713 827.53 165.793 827.97 164.98C828.423 164.167 829.037 163.533 829.81 163.08C830.597 162.627 831.477 162.4 832.45 162.4C833.423 162.4 834.297 162.627 835.07 163.08C835.843 163.533 836.45 164.167 836.89 164.98C837.33 165.78 837.55 166.7 837.55 167.74L837.53 168.18ZM832.45 163.62C831.437 163.62 830.583 163.947 829.89 164.6C829.21 165.24 828.823 166.08 828.73 167.12H836.19C836.097 166.08 835.703 165.24 835.01 164.6C834.33 163.947 833.477 163.62 832.45 163.62Z" fill="#F8F8F8"/>
<path d="M755.5 98V239.5M755.5 98L773 115.5M755.5 98L738 115.5M755.5 239.5L773 222M755.5 239.5L738 222" stroke="#F8F8F8"/>
<defs>
<filter id="filter0_b_1439_770" x="642" y="56" width="230" height="230" filterUnits="userSpaceOnUse" color-interpolation-filters="sRGB">
<feFlood flood-opacity="0" result="BackgroundImageFix"/>
<feGaussianBlur in="BackgroundImage" stdDeviation="4"/>
<feComposite in2="SourceAlpha" operator="in" result="effect1_backgroundBlur_1439_770"/>
<feBlend mode="normal" in="SourceGraphic" in2="effect1_backgroundBlur_1439_770" result="shape"/>
</filter>
</defs>
</svg>
